#!OML:ASF X:\für Bonn\!DataBase\2005_08_11_Bastian_Final\c3d\Bastian.ASF
:FULLY-SPECIFIED
:DEGREES
112
root 5.74011 12.569 -3.38387 807.803 78.6015 -268.74
lowerback 61.5838 -11.8788 14.8558
upperback 16.5632 1.37092 6.88834
thorax -1.90064 2.64129 1.07864
lowerneck -0.0233894 -15.8337 4.32119
upperneck -23.9036 -18.2067 19.871
head -5.76726 -11.0305 6.39752
rclavicle -4.13472e-014 -3.33958e-014
rhumerus 31.139 -6.96753 -41.3056
rradius 24.9147
rwrist 3.27136
rhand -32.1847 -0.378445
rfingers 7.12502
rthumb -5.4271 -30.289
lclavicle -4.13472e-014 -3.33958e-014
lhumerus 14.2873 -23.6378 65.0279
lradius 68.8709
lwrist 25.6526
lhand -14.9054 -12.1977
lfingers 7.12502
lthumb 11.256 17.4803
rfemur -66.3903 -5.13307 3.28413
rtibia 100.013
rfoot -20.2969 -5.87849
rtoes -23.0567
lfemur -57.4078 5.87814 -40.3512
ltibia 95.6438
lfoot -24.12 -13.6536
ltoes 23.8711
113
root 5.78861 12.4561 -3.37412 808.228 78.3264 -268.327
lowerback 61.9365 -12.0536 14.8365
upperback 16.4899 1.28339 6.84991
thorax -1.97805 2.60387 1.10131
lowerneck -0.264356 -15.5922 4.33997
upperneck -24.2105 -17.8824 19.6481
head -5.87714 -10.858 6.33303
rclavicle -7.95139e-014 -8.62725e-014
rhumerus 31.3152 -7.19719 -41.3292
rradius 24.8538
rwrist 3.5355
rhand -32.6034 -0.203174
rfingers 7.12502
rthumb -5.8313 -30.1029
lclavicle -7.95139e-014 -8.62725e-014
lhumerus 14.7129 -23.5234 65.0184
lradius 68.7472
lwrist 24.878
lhand -14.6702 -12.3609
lfingers 7.12502
lthumb 11.4829 17.3046
rfemur -67.0609 -5.56624 3.06382
rtibia 101.283
rfoot -20.8236 -5.83406
rtoes -23.1768
lfemur -57.9071 5.77251 -40.6788
ltibia 96.8388
lfoot -24.7096 -13.8528
ltoes 24.3437
114
root 5.8357 12.3476 -3.36378 808.534 78.1122 -268.047
lowerback 62.2653 -12.2077 14.8091
upperback 16.4459 1.2091 6.8266
thorax -2.02301 2.57332 1.13783
lowerneck -0.547347 -15.3342 4.41567
upperneck -24.5073 -17.5517 19.3394
head -5.99243 -10.6768 6.23113
rclavicle -8.26944e-014 -1.98785e-015
rhumerus 31.5279 -7.40698 -41.36
rradius 24.8238
rwrist 3.79922
rhand -32.9411 -0.127537
rfingers 7.12502
rthumb -6.15739 -30.0181
lclavicle -8.26944e-014 -1.98785e-015
lhumerus 15.1022 -23.3691 65.0408
lradius 68.6348
lwrist 24.1037
lhand -14.4985 -12.5698
lfingers 7.12502
lthumb 11.6484 17.0864
rfemur -67.7087 -5.98312 2.91998
rtibia 102.5
rfoot -21.356 -5.79415
rtoes -23.1849
lfemur -58.4035 5.70908 -40.9436
ltibia 97.997
lfoot -25.31 -14.0108
ltoes 24.5873
115
root 5.88186 12.2423 -3.3542 808.701 77.8975 -267.894
lowerback 62.6354 -12.3652 14.8007
upperback 16.356 1.14211 6.76396
thorax -2.11454 2.54493 1.12171
lowerneck -0.757038 -15.092 4.57116
upperneck -24.7929 -17.2404 18.9881
head -6.12811 -10.5098 6.11305
rclavicle -1.145e-013 -5.68524e-014
rhumerus 31.602 -7.50018 -41.318
rradius 24.8127
rwrist 4.00456
rhand -33.3006 -0.16771
rfingers 7.12502
rthumb -6.50445 -30.0478
lclavicle -1.145e-013 -5.68524e-014
lhumerus 15.3489 -23.2508 65.0894
lradius 68.5716
lwrist 23.3502
lhand -14.3568 -12.8142
lfingers 7.12502
lthumb 11.785 16.8342
rfemur -68.3251 -6.39949 2.77564
rtibia 103.655
rfoot -21.8436 -5.72234
rtoes -23.1059
lfemur -58.8724 5.64388 -41.1945
ltibia 99.1116
lfoot -25.8752 -14.1869
ltoes 24.9728
116
root 5.92559 12.1397 -3.34483 808.922 77.684 -267.733
lowerback 62.9558 -12.4883 14.7787
upperback 16.2481 1.08611 6.71357
thorax -2.22964 2.51491 1.11509
lowerneck -0.868003 -14.8451 4.76606
upperneck -25.0905 -16.919 18.5909
head -6.29339 -10.3406 5.98589
rclavicle 4.45278e-014 -1.55052e-014
rhumerus 31.629 -7.58402 -41.309
rradius 24.8076
rwrist 4.19924
rhand -33.6772 -0.162241
rfingers 7.12502
rthumb -6.86792 -30.0308
lclavicle 4.45278e-014 -1.55052e-014
lhumerus 15.5317 -23.176 65.1732
lradius 68.5087
lwrist 22.6702
lhand -14.2058 -13.111
lfingers 7.12502
lthumb 11.9306 16.529
rfemur -68.9882 -6.86479 2.63795
rtibia 104.774
rfoot -22.33 -5.54417
rtoes -22.7212
lfemur -59.3762 5.5412 -41.4565
ltibia 100.185
lfoot -26.4253 -14.303
ltoes 25.2153
117
root 5.96517 12.0392 -3.33563 809.1 77.4994 -267.583
lowerback 63.2984 -12.6071 14.7512
upperback 16.145 1.03851 6.65994
thorax -2.33835 2.49032 1.105
lowerneck -0.960913 -14.6017 4.97821
upperneck -25.3632 -16.6049 18.1885
head -6.45418 -10.1751 5.85259
rclavicle -1.24042e-013 -5.80451e-014
rhumerus 31.6746 -7.77769 -41.437
rradius 24.761
rwrist 4.56852
rhand -33.9721 -0.194936
rfingers 7.12502
rthumb -7.15264 -30.0541
lclavicle -1.24042e-013 -5.80451e-014
lhumerus 15.6516 -23.1422 65.2307
lradius 68.5428
lwrist 22.0302
lhand -13.9861 -13.2548
lfingers 7.12502
lthumb 12.1425 16.3728
rfemur -69.6105 -7.32373 2.52807
rtibia 105.848
rfoot -22.8008 -5.36695
rtoes -22.3764
lfemur -59.8505 5.47405 -41.6862
ltibia 101.223
lfoot -26.9279 -14.4571
ltoes 25.4817
118
root 6.0008 11.9421 -3.32563 809.309 77.3452 -267.429
lowerback 63.6494 -12.6821 14.6548
upperback 16.0561 1.01052 6.67802
thorax -2.44165 2.46419 1.19212
lowerneck -1.09221 -14.3334 5.14326
upperneck -25.6024 -16.2907 17.6841
head -6.60027 -9.99321 5.68502
rclavicle -3.18055e-014 -1.19271e-015
rhumerus 31.751 -7.73376 -41.3552
rradius 24.7742
rwrist 4.70496
rhand -34.3336 -0.289229
rfingers 7.12502
rthumb -7.50156 -30.1362
lclavicle -3.18055e-014 -1.19271e-015
lhumerus 15.7433 -23.0983 65.3342
lradius 68.5641
lwrist 21.4455
lhand -13.7388 -13.3281
lfingers 7.12502
lthumb 12.381 16.2853
rfemur -70.2528 -7.78161 2.46762
rtibia 106.87
rfoot -23.2255 -5.19912
rtoes -21.9462
lfemur -60.3586 5.38487 -41.8773
ltibia 102.216
lfoot -27.3835 -14.574
ltoes 25.722
119
root 6.03459 11.8503 -3.31531 809.485 77.159 -267.254
lowerback 64.0029 -12.7596 14.5169
upperback 16.0274 0.963351 6.692
thorax -2.4794 2.43833 1.29937
lowerneck -1.29073 -14.0704 5.22416
upperneck -25.8176 -15.984 17.2598
head -6.70724 -9.81147 5.54114
rclavicle -3.81667e-014 -5.60573e-014
rhumerus 31.9274 -7.88188 -41.4168
rradius 24.7142
rwrist 5.03572
rhand -34.7002 -0.317492
rfingers 7.12502
rthumb -7.85546 -30.1515
lclavicle -3.81667e-014 -5.60573e-014
lhumerus 15.9531 -23.0717 65.3628
lradius 68.5562
lwrist 20.9097
lhand -13.4892 -13.3389
lfingers 7.12502
lthumb 12.6216 16.2597
rfemur -70.804 -8.257 2.37401
rtibia 107.836
rfoot -23.6622 -4.98562
rtoes -21.5817
lfemur -60.7602 5.29431 -42.0888
ltibia 103.142
lfoot -27.8447 -14.6889
ltoes 26.0393
120
root 6.06607 11.7647 -3.30695 809.583 77.0056 -267.221
lowerback 64.2622 -12.7874 14.3737
upperback 16.0441 0.941107 6.73433
thorax -2.46971 2.42322 1.42474
lowerneck -1.54599 -13.8056 5.35338
upperneck -25.9972 -15.7022 16.743
head -6.80366 -9.63452 5.35432
rclavicle -1.59028e-014 -4.96962e-014
rhumerus 32.0988 -7.97975 -41.4006
rradius 24.7047
rwrist 5.36312
rhand -35.3197 -0.378318
rfingers 7.12502
rthumb -8.45328 -30.1891
lclavicle -1.59028e-014 -4.96962e-014
lhumerus 16.1741 -23.106 65.3908
lradius 68.5358
lwrist 20.433
lhand -13.2663 -13.2859
lfingers 7.12502
lthumb 12.8365 16.2994
rfemur -71.4061 -8.72545 2.32849
rtibia 108.726
rfoot -24.0492 -4.79474
rtoes -21.252
lfemur -61.2277 5.20477 -42.2799
ltibia 104.016
lfoot -28.2536 -14.7598
ltoes 26.1268
121
root 6.09565 11.6867 -3.29798 809.69 76.8511 -267.173
lowerback 64.5472 -12.8257 14.2409
upperback 16.0435 0.917837 6.76213
thorax -2.47632 2.40793 1.53179
lowerneck -1.82872 -13.5452 5.47962
upperneck -26.1026 -15.4457 16.1918
head -6.87008 -9.46257 5.14795
rclavicle -1.27222e-014 -7.95139e-016
rhumerus 32.2698 -8.12224 -41.4545
rradius 24.6627
rwrist 5.71501
rhand -36.4224 -0.256088
rfingers 7.12502
rthumb -9.51737 -30.0212
lclavicle -1.27222e-014 -7.95139e-016
lhumerus 16.4357 -23.1693 65.3995
lradius 68.4354
lwrist 19.9848
lhand -12.9944 -13.2334
lfingers 7.12502
lthumb 13.0986 16.3352
rfemur -71.9548 -9.18193 2.27817
rtibia 109.536
rfoot -24.414 -4.55811
rtoes -20.9576
lfemur -61.6246 5.12588 -42.4689
ltibia 104.806
lfoot -28.6589 -14.8411
ltoes 26.264
122
root 6.12305 11.6158 -3.2892 809.753 76.79 -267.188
lowerback 64.8279 -12.8477 14.1141
upperback 16.0556 0.918678 6.82563
thorax -2.46887 2.39992 1.66725
lowerneck -2.13433 -13.2978 5.62761
upperneck -26.1554 -15.2374 15.5502
head -6.92097 -9.30625 4.90549
rclavicle -1.55847e-013 -8.50798e-014
rhumerus 32.4644 -8.2007 -41.4849
rradius 24.6415
rwrist 6.06258
rhand -37.5819 -0.103501
rfingers 7.12502
rthumb -10.636 -29.8143
lclavicle -1.55847e-013 -8.50798e-014
lhumerus 16.6895 -23.2334 65.421
lradius 68.323
lwrist 19.589
lhand -12.782 -13.0734
lfingers 7.12502
lthumb 13.3034 16.482
rfemur -72.4812 -9.584 2.3513
rtibia 110.269
rfoot -24.7108 -4.4152
rtoes -20.8507
lfemur -62.0307 5.06576 -42.5408
ltibia 105.548
lfoot -29.0336 -14.9468
ltoes 26.4302
123
root 6.14911 11.5531 -3.28019 809.869 76.7856 -267.21
lowerback 65.0648 -12.8567 14.0624
upperback 16.0356 0.960599 6.89294
thorax -2.49149 2.4072 1.75986
lowerneck -2.37255 -13.0387 5.80701
upperneck -26.3177 -14.9953 14.8935
head -7.02435 -9.1406 4.6672
rclavicle 8.5875e-014 8.80616e-014
rhumerus 32.5723 -8.42767 -41.626
rradius 24.6473
rwrist 6.5832
rhand -38.6969 0.128138
rfingers 7.12502
rthumb -11.7114 -29.5245
lclavicle 8.5875e-014 8.80616e-014
lhumerus 16.9519 -23.3919 65.4507
lradius 68.1368
lwrist 19.2094
lhand -12.6177 -12.9097
lfingers 7.12502
lthumb 13.4616 16.6353
rfemur -73.0136 -9.98338 2.5
rtibia 110.907
rfoot -25.0089 -4.2383
rtoes -20.7017
lfemur -62.4811 5.00521 -42.562
ltibia 106.223
lfoot -29.3599 -14.9995
ltoes 26.5001
